<svg aria-hidden="true" style="position: absolute; width: 0; height: 0; overflow: hidden;" version="1.1" xmlns="http://www.w3.org/2000/svg" xmlns:xlink="http://www.w3.org/1999/xlink">
<defs>
<symbol id="icon-plus" viewBox="0 0 32 32">
<path d="M15.425 0.028c-0.075 0.013-0.248 0.040-0.383 0.063-0.685 0.108-1.252 0.38-1.715 0.823-0.525 0.503-0.887 1.165-1.050 1.915-0.113 0.527-0.11 0.43-0.125 5.060l-0.015 4.425-4.425 0.012c-4.005 0.012-4.447 0.018-4.668 0.057-0.82 0.14-1.41 0.408-1.938 0.873-0.445 0.39-0.74 0.867-0.92 1.485-0.077 0.265-0.188 0.975-0.188 1.225 0 0.173 0.068 0.687 0.125 0.95 0.185 0.843 0.738 1.657 1.458 2.137 0.36 0.24 0.675 0.383 1.105 0.5 0.518 0.14 0.212 0.13 5.013 0.145l4.438 0.015 0.015 4.413c0.012 3.898 0.018 4.442 0.053 4.678 0.227 1.485 0.967 2.488 2.168 2.94 0.492 0.185 1.393 0.3 1.813 0.233 0.082-0.012 0.267-0.043 0.41-0.065 0.352-0.052 0.648-0.142 0.948-0.285 0.352-0.168 0.602-0.345 0.883-0.625 0.552-0.552 0.907-1.285 1.025-2.113 0.015-0.11 0.035-0.227 0.043-0.262 0.010-0.035 0.023-2.055 0.030-4.488l0.015-4.425 4.438-0.015c3.107-0.010 4.488-0.023 4.607-0.043 0.883-0.145 1.545-0.462 2.080-0.995 0.558-0.555 0.83-1.155 0.962-2.122 0.055-0.418 0.063-0.655 0.023-0.92-0.113-0.775-0.165-0.975-0.348-1.357-0.198-0.418-0.413-0.7-0.77-1.018-0.523-0.46-1.102-0.723-1.892-0.86-0.227-0.040-0.628-0.045-4.675-0.057l-4.425-0.012-0.015-4.425c-0.010-3.192-0.023-4.478-0.043-4.612-0.15-0.958-0.455-1.62-1.020-2.223-0.538-0.57-1.135-0.865-2.025-0.993-0.332-0.050-0.825-0.065-1.010-0.033z"></path>
</symbol>
<symbol id="icon-ok" viewBox="0 0 64 32">
<path  d="M17.117 29.261c-2.79 0-5.312-0.602-7.565-1.805-2.227-1.203-3.981-2.854-5.261-4.954-1.254-2.125-1.882-4.506-1.882-7.142s0.627-5.005 1.882-7.104c1.28-2.125 3.034-3.789 5.261-4.992 2.253-1.203 4.774-1.805 7.565-1.805s5.299 0.602 7.526 1.805c2.227 1.203 3.981 2.867 5.261 4.992 1.28 2.099 1.92 4.467 1.92 7.104s-0.64 5.018-1.92 7.142c-1.28 2.099-3.034 3.75-5.261 4.954s-4.736 1.805-7.526 1.805zM17.117 23.962c1.587 0 3.021-0.358 4.301-1.075 1.28-0.742 2.278-1.766 2.995-3.072 0.742-1.306 1.114-2.79 1.114-4.454s-0.371-3.149-1.114-4.454c-0.717-1.306-1.715-2.317-2.995-3.034-1.28-0.742-2.714-1.114-4.301-1.114s-3.021 0.371-4.301 1.114c-1.28 0.717-2.291 1.728-3.034 3.034-0.717 1.306-1.075 2.79-1.075 4.454s0.358 3.149 1.075 4.454c0.742 1.306 1.754 2.33 3.034 3.072 1.28 0.717 2.714 1.075 4.301 1.075zM48.559 17.971h-4.301v10.829h-6.182v-26.88h6.182v10.867h4.454l7.066-10.867h6.566l-8.794 12.979 9.062 13.901h-7.066l-6.989-10.829z"></path>
</symbol>
<symbol id="icon-check-mark" viewBox="0 0 40 32">
<path d="M4 15.556l10.971 12.444 21.029-24"></path>
</symbol>
<symbol id="icon-border-checkbox" viewBox="0 0 32 32">
<path d="M4.571 1.143h22.857c1.894 0 3.429 1.535 3.429 3.429v22.857c0 1.894-1.535 3.429-3.429 3.429h-22.857c-1.894 0-3.429-1.535-3.429-3.429v-22.857c0-1.894 1.535-3.429 3.429-3.429z"></path>
</symbol>
</defs>
</svg>
