<svg aria-hidden="true" style="position: absolute; width: 0; height: 0; overflow: hidden;" version="1.1" xmlns="http://www.w3.org/2000/svg" xmlns:xlink="http://www.w3.org/1999/xlink">
<defs>
<symbol id="task-input-icon" viewBox="0 0 32 32">
<path fill="#fff" style="fill: var(--color1, #fff)" d="M18.747 12.027l1.227 1.227-12.080 12.080h-1.227v-1.227l12.080-12.080zM23.547 4c-0.333 0-0.68 0.133-0.933 0.387l-2.44 2.44 5 5 2.44-2.44c0.52-0.52 0.52-1.36 0-1.88l-3.12-3.12c-0.267-0.267-0.6-0.387-0.947-0.387zM18.747 8.253l-14.747 14.747v5h5l14.747-14.747-5-5z"></path>
</symbol>
<symbol id="modal-task-icon" viewBox="0 0 36 32">
<path d="M32.47 2.709l-23.575-2.677c-0.915-0.13-1.842 0.137-2.547 0.734-0.705 0.547-1.157 1.358-1.252 2.245l-0.432 3.541h-1.339c-1.9 0-3.325 1.684-3.325 3.584v17.659c-0.048 1.812 1.382 3.319 3.194 3.367 0.044 0.001 0.087 0.001 0.131 0.001h23.704c1.9 0 3.627-1.468 3.627-3.368v-0.691c0.589-0.114 1.148-0.349 1.641-0.691 0.7-0.589 1.148-1.423 1.252-2.332l1.986-17.53c0.203-1.904-1.164-3.617-3.066-3.843zM28.93 27.795c0 0.95-0.95 1.641-1.9 1.641h-23.704c-0.858 0.025-1.574-0.65-1.599-1.508-0.001-0.044-0.001-0.088 0.002-0.133v-3.195l6.692-4.922c0.804-0.617 1.936-0.562 2.677 0.129l4.706 4.145c0.715 0.6 1.614 0.935 2.548 0.95 0.73 0.009 1.447-0.185 2.073-0.561l8.506-4.922v8.376h-0zM28.93 17.389l-9.412 5.483c-0.808 0.479-1.831 0.392-2.548-0.216l-4.749-4.188c-1.361-1.17-3.351-1.241-4.793-0.173l-5.699 4.145v-12.305c0-0.95 0.648-1.857 1.598-1.857h23.704c1.015 0.042 1.834 0.843 1.9 1.857v7.254zM33.81 6.319c-0.001 0.006-0.001 0.011-0.002 0.017l-2.029 17.53c0.003 0.455-0.204 0.885-0.561 1.166-0.173 0.173-0.561 0.259-0.561 0.345v-15.241c-0.068-1.967-1.659-3.539-3.627-3.584h-20.638l0.389-3.368c0.084-0.436 0.312-0.831 0.648-1.123 0.379-0.262 0.837-0.384 1.295-0.345l23.531 2.72c0.95 0.090 1.646 0.933 1.556 1.883z"></path>
</symbol>
</defs>
</svg>
