<svg aria-hidden="true" style="position: absolute; width: 0; height: 0; overflow: hidden;" version="1.1" xmlns="http://www.w3.org/2000/svg" xmlns:xlink="http://www.w3.org/1999/xlink">
<defs>
<symbol id="icon-sign" viewBox="0 0 10 32">
<path  d="M2.048 1.969h7.326l-1.221 17.999h-4.884l-1.221-17.999zM5.711 29.854c-1.077 0-1.982-0.341-2.718-1.024-0.709-0.709-1.063-1.562-1.063-2.56s0.354-1.825 1.063-2.481c0.709-0.683 1.615-1.024 2.718-1.024s2.009 0.341 2.718 1.024c0.709 0.656 1.063 1.484 1.063 2.481s-0.368 1.851-1.103 2.56c-0.709 0.683-1.602 1.024-2.678 1.024z"></path>
</symbol>
<symbol id="icon-check" viewBox="0 0 38 32">
<path fill="none" stroke="#fff" style="stroke: var(--color1, #fff)" stroke-linejoin="round" stroke-linecap="round" stroke-miterlimit="4" stroke-width="6.4" d="M3.2 15.526l10.971 13.274 21.029-25.6"></path>
</symbol>
<symbol id="icon-gift-box" viewBox="0 0 32 32">
<path fill="#ffbc33" style="fill: var(--color1, #ffbc33)" d="M17.866 19.157v12.843h10.565c1.373 0 2.487-1.113 2.487-2.487v-10.356h-13.052z"></path>
<path fill="#ffbc33" style="fill: var(--color1, #ffbc33)" d="M14.13 19.157h-13.047v10.356c0 1.374 1.114 2.487 2.487 2.487h10.56v-12.843zM4.474 29.39c-0.516 0-0.934-0.418-0.934-0.934v-5.182c0-0.516 0.418-0.934 0.934-0.934s0.934 0.418 0.934 0.934v5.182c0 0.515-0.418 0.934-0.934 0.934z"></path>
<path fill="#ffbc33" style="fill: var(--color1, #ffbc33)" d="M29.24 9.419h-4.671c0.645-0.309 1.185-0.629 1.512-0.956 1.924-1.924 1.924-5.044 0-6.968-0.963-0.962-2.224-1.443-3.485-1.443s-2.522 0.481-3.484 1.443c-0.799 0.799-1.567 2.772-2.195 4.804-0.293-0.080-0.595-0.137-0.912-0.137-0.316 0-0.618 0.056-0.91 0.136-0.63-2.051-1.406-4.050-2.212-4.856-0.962-0.962-2.222-1.443-3.484-1.443-1.261 0-2.522 0.481-3.484 1.443-1.924 1.925-1.924 5.044 0 6.968 0.344 0.346 0.924 0.684 1.62 1.008h-4.775c-1.373 0-2.486 1.113-2.486 2.486v2.115c0 1.373 1.113 2.485 2.486 2.485h11.37v-6.988h3.736v6.988h11.374c1.373 0 2.486-1.113 2.486-2.486v-2.115c0-1.373-1.113-2.486-2.486-2.486zM20.873 3.256c0.46-0.46 1.072-0.713 1.723-0.713s1.264 0.254 1.724 0.713c0.46 0.46 0.713 1.072 0.713 1.723s-0.253 1.263-0.71 1.72c-0.514 0.485-2.529 1.242-5.020 1.946-0.070-0.242-0.165-0.47-0.286-0.687 0.679-2.344 1.391-4.211 1.856-4.702zM7.677 3.204c0.46-0.46 1.073-0.713 1.723-0.713 0.652 0 1.263 0.253 1.722 0.712 0.468 0.496 1.189 2.387 1.873 4.755-0.113 0.203-0.203 0.417-0.274 0.643-2.503-0.705-4.53-1.465-5.044-1.95-0.95-0.95-0.95-2.496 0-3.446z"></path>
</symbol>
</defs>
</svg>